<?xml version="1.0" encoding="utf-8" standalone="no"?>
<!DOCTYPE svg PUBLIC "-//W3C//DTD SVG 1.1//EN"
  "http://www.w3.org/Graphics/SVG/1.1/DTD/svg11.dtd">
<svg xmlns:xlink="http://www.w3.org/1999/xlink" width="288pt" height="288pt" viewBox="0 0 288 288" xmlns="http://www.w3.org/2000/svg" version="1.1">
 <metadata>
  <rdf:RDF xmlns:dc="http://purl.org/dc/elements/1.1/" xmlns:cc="http://creativecommons.org/ns#" xmlns:rdf="http://www.w3.org/1999/02/22-rdf-syntax-ns#">
   <cc:Work>
    <dc:type rdf:resource="http://purl.org/dc/dcmitype/StillImage"/>
    <dc:date>2025-03-12T17:29:22.461119</dc:date>
    <dc:format>image/svg+xml</dc:format>
    <dc:creator>
     <cc:Agent>
      <dc:title>Matplotlib v3.5.2, https://matplotlib.org/</dc:title>
     </cc:Agent>
    </dc:creator>
   </cc:Work>
  </rdf:RDF>
 </metadata>
 <defs>
  <style type="text/css">*{stroke-linejoin: round; stroke-linecap: butt}</style>
 </defs>
 <g id="figure_1">
  <g id="patch_1">
   <path d="M 0 288 
L 288 288 
L 288 0 
L 0 0 
z
" style="fill: #ffffff"/>
  </g>
  <g id="axes_1">
   <g id="patch_2">
    <path d="M 46.62 121.362354 
L 238.685859 121.362354 
L 238.685859 29.4 
L 46.62 29.4 
z
" style="fill: #ffffff"/>
   </g>
   <g id="matplotlib.axis_1">
    <g id="xtick_1">
     <g id="line2d_1">
      <defs>
       <path id="mf9d1a5b0c2" d="M 0 0 
L 0 -3.5 
" style="stroke: #000000; stroke-width: 0.8"/>
      </defs>
      <g>
       <use xlink:href="#mf9d1a5b0c2" x="55.350266" y="121.362354" style="stroke: #000000; stroke-width: 0.8"/>
      </g>
     </g>
     <g id="text_1">
      <!-- 0 -->
      <g transform="translate(52.013704 133.451729)scale(0.12 -0.12)">
       <defs>
        <path id="ArialMT-30" d="M 266 2259 
Q 266 3072 433 3567 
Q 600 4063 929 4331 
Q 1259 4600 1759 4600 
Q 2128 4600 2406 4451 
Q 2684 4303 2865 4023 
Q 3047 3744 3150 3342 
Q 3253 2941 3253 2259 
Q 3253 1453 3087 958 
Q 2922 463 2592 192 
Q 2263 -78 1759 -78 
Q 1097 -78 719 397 
Q 266 969 266 2259 
z
M 844 2259 
Q 844 1131 1108 757 
Q 1372 384 1759 384 
Q 2147 384 2411 759 
Q 2675 1134 2675 2259 
Q 2675 3391 2411 3762 
Q 2147 4134 1753 4134 
Q 1366 4134 1134 3806 
Q 844 3388 844 2259 
z
" transform="scale(0.015625)"/>
       </defs>
       <use xlink:href="#ArialMT-30"/>
      </g>
     </g>
    </g>
    <g id="xtick_2">
     <g id="line2d_2">
      <g>
       <use xlink:href="#mf9d1a5b0c2" x="128.223942" y="121.362354" style="stroke: #000000; stroke-width: 0.8"/>
      </g>
     </g>
     <g id="text_2">
      <!-- 50 -->
      <g transform="translate(121.550817 133.451729)scale(0.12 -0.12)">
       <defs>
        <path id="ArialMT-35" d="M 266 1200 
L 856 1250 
Q 922 819 1161 601 
Q 1400 384 1738 384 
Q 2144 384 2425 690 
Q 2706 997 2706 1503 
Q 2706 1984 2436 2262 
Q 2166 2541 1728 2541 
Q 1456 2541 1237 2417 
Q 1019 2294 894 2097 
L 366 2166 
L 809 4519 
L 3088 4519 
L 3088 3981 
L 1259 3981 
L 1013 2750 
Q 1425 3038 1878 3038 
Q 2478 3038 2890 2622 
Q 3303 2206 3303 1553 
Q 3303 931 2941 478 
Q 2500 -78 1738 -78 
Q 1113 -78 717 272 
Q 322 622 266 1200 
z
" transform="scale(0.015625)"/>
       </defs>
       <use xlink:href="#ArialMT-35"/>
       <use xlink:href="#ArialMT-30" x="55.615234"/>
      </g>
     </g>
    </g>
    <g id="xtick_3">
     <g id="line2d_3">
      <g>
       <use xlink:href="#mf9d1a5b0c2" x="201.097618" y="121.362354" style="stroke: #000000; stroke-width: 0.8"/>
      </g>
     </g>
     <g id="text_3">
      <!-- 100 -->
      <g transform="translate(191.08793 133.451729)scale(0.12 -0.12)">
       <defs>
        <path id="ArialMT-31" d="M 2384 0 
L 1822 0 
L 1822 3584 
Q 1619 3391 1289 3197 
Q 959 3003 697 2906 
L 697 3450 
Q 1169 3672 1522 3987 
Q 1875 4303 2022 4600 
L 2384 4600 
L 2384 0 
z
" transform="scale(0.015625)"/>
       </defs>
       <use xlink:href="#ArialMT-31"/>
       <use xlink:href="#ArialMT-30" x="55.615234"/>
       <use xlink:href="#ArialMT-30" x="111.230469"/>
      </g>
     </g>
    </g>
   </g>
   <g id="matplotlib.axis_2">
    <g id="ytick_1">
     <g id="line2d_4">
      <defs>
       <path id="mf52cd12b2b" d="M 0 0 
L 3.5 0 
" style="stroke: #000000; stroke-width: 0.8"/>
      </defs>
      <g>
       <use xlink:href="#mf52cd12b2b" x="46.62" y="107.769841" style="stroke: #000000; stroke-width: 0.8"/>
      </g>
     </g>
     <g id="text_4">
      <!-- −5 -->
      <g transform="translate(29.438125 112.064529)scale(0.12 -0.12)">
       <defs>
        <path id="ArialMT-2212" d="M 3381 1997 
L 356 1997 
L 356 2522 
L 3381 2522 
L 3381 1997 
z
" transform="scale(0.015625)"/>
       </defs>
       <use xlink:href="#ArialMT-2212"/>
       <use xlink:href="#ArialMT-35" x="58.398438"/>
      </g>
     </g>
    </g>
    <g id="ytick_2">
     <g id="line2d_5">
      <g>
       <use xlink:href="#mf52cd12b2b" x="46.62" y="78.681842" style="stroke: #000000; stroke-width: 0.8"/>
      </g>
     </g>
     <g id="text_5">
      <!-- 0 -->
      <g transform="translate(36.446875 82.976529)scale(0.12 -0.12)">
       <use xlink:href="#ArialMT-30"/>
      </g>
     </g>
    </g>
    <g id="ytick_3">
     <g id="line2d_6">
      <g>
       <use xlink:href="#mf52cd12b2b" x="46.62" y="49.593842" style="stroke: #000000; stroke-width: 0.8"/>
      </g>
     </g>
     <g id="text_6">
      <!-- 5 -->
      <g transform="translate(36.446875 53.888529)scale(0.12 -0.12)">
       <use xlink:href="#ArialMT-35"/>
      </g>
     </g>
    </g>
    <g id="text_7">
     <!-- Curvature $\kappa$ (1/L) -->
     <g transform="translate(22.798125 120.981177)rotate(-90)scale(0.12 -0.12)">
      <defs>
       <path id="ArialMT-43" d="M 3763 1606 
L 4369 1453 
Q 4178 706 3683 314 
Q 3188 -78 2472 -78 
Q 1731 -78 1267 223 
Q 803 525 561 1097 
Q 319 1669 319 2325 
Q 319 3041 592 3573 
Q 866 4106 1370 4382 
Q 1875 4659 2481 4659 
Q 3169 4659 3637 4309 
Q 4106 3959 4291 3325 
L 3694 3184 
Q 3534 3684 3231 3912 
Q 2928 4141 2469 4141 
Q 1941 4141 1586 3887 
Q 1231 3634 1087 3207 
Q 944 2781 944 2328 
Q 944 1744 1114 1308 
Q 1284 872 1643 656 
Q 2003 441 2422 441 
Q 2931 441 3284 734 
Q 3638 1028 3763 1606 
z
" transform="scale(0.015625)"/>
       <path id="ArialMT-75" d="M 2597 0 
L 2597 488 
Q 2209 -75 1544 -75 
Q 1250 -75 995 37 
Q 741 150 617 320 
Q 494 491 444 738 
Q 409 903 409 1263 
L 409 3319 
L 972 3319 
L 972 1478 
Q 972 1038 1006 884 
Q 1059 663 1231 536 
Q 1403 409 1656 409 
Q 1909 409 2131 539 
Q 2353 669 2445 892 
Q 2538 1116 2538 1541 
L 2538 3319 
L 3100 3319 
L 3100 0 
L 2597 0 
z
" transform="scale(0.015625)"/>
       <path id="ArialMT-72" d="M 416 0 
L 416 3319 
L 922 3319 
L 922 2816 
Q 1116 3169 1280 3281 
Q 1444 3394 1641 3394 
Q 1925 3394 2219 3213 
L 2025 2691 
Q 1819 2813 1613 2813 
Q 1428 2813 1281 2702 
Q 1134 2591 1072 2394 
Q 978 2094 978 1738 
L 978 0 
L 416 0 
z
" transform="scale(0.015625)"/>
       <path id="ArialMT-76" d="M 1344 0 
L 81 3319 
L 675 3319 
L 1388 1331 
Q 1503 1009 1600 663 
Q 1675 925 1809 1294 
L 2547 3319 
L 3125 3319 
L 1869 0 
L 1344 0 
z
" transform="scale(0.015625)"/>
       <path id="ArialMT-61" d="M 2588 409 
Q 2275 144 1986 34 
Q 1697 -75 1366 -75 
Q 819 -75 525 192 
Q 231 459 231 875 
Q 231 1119 342 1320 
Q 453 1522 633 1644 
Q 813 1766 1038 1828 
Q 1203 1872 1538 1913 
Q 2219 1994 2541 2106 
Q 2544 2222 2544 2253 
Q 2544 2597 2384 2738 
Q 2169 2928 1744 2928 
Q 1347 2928 1158 2789 
Q 969 2650 878 2297 
L 328 2372 
Q 403 2725 575 2942 
Q 747 3159 1072 3276 
Q 1397 3394 1825 3394 
Q 2250 3394 2515 3294 
Q 2781 3194 2906 3042 
Q 3031 2891 3081 2659 
Q 3109 2516 3109 2141 
L 3109 1391 
Q 3109 606 3145 398 
Q 3181 191 3288 0 
L 2700 0 
Q 2613 175 2588 409 
z
M 2541 1666 
Q 2234 1541 1622 1453 
Q 1275 1403 1131 1340 
Q 988 1278 909 1158 
Q 831 1038 831 891 
Q 831 666 1001 516 
Q 1172 366 1500 366 
Q 1825 366 2078 508 
Q 2331 650 2450 897 
Q 2541 1088 2541 1459 
L 2541 1666 
z
" transform="scale(0.015625)"/>
       <path id="ArialMT-74" d="M 1650 503 
L 1731 6 
Q 1494 -44 1306 -44 
Q 1000 -44 831 53 
Q 663 150 594 308 
Q 525 466 525 972 
L 525 2881 
L 113 2881 
L 113 3319 
L 525 3319 
L 525 4141 
L 1084 4478 
L 1084 3319 
L 1650 3319 
L 1650 2881 
L 1084 2881 
L 1084 941 
Q 1084 700 1114 631 
Q 1144 563 1211 522 
Q 1278 481 1403 481 
Q 1497 481 1650 503 
z
" transform="scale(0.015625)"/>
       <path id="ArialMT-65" d="M 2694 1069 
L 3275 997 
Q 3138 488 2766 206 
Q 2394 -75 1816 -75 
Q 1088 -75 661 373 
Q 234 822 234 1631 
Q 234 2469 665 2931 
Q 1097 3394 1784 3394 
Q 2450 3394 2872 2941 
Q 3294 2488 3294 1666 
Q 3294 1616 3291 1516 
L 816 1516 
Q 847 969 1125 678 
Q 1403 388 1819 388 
Q 2128 388 2347 550 
Q 2566 713 2694 1069 
z
M 847 1978 
L 2700 1978 
Q 2663 2397 2488 2606 
Q 2219 2931 1791 2931 
Q 1403 2931 1139 2672 
Q 875 2413 847 1978 
z
" transform="scale(0.015625)"/>
       <path id="ArialMT-20" transform="scale(0.015625)"/>
       <path id="DejaVuSans-Oblique-3ba" d="M 938 3500 
L 1531 3500 
L 1247 2047 
L 3041 3500 
L 3741 3500 
L 2106 2181 
L 3275 0 
L 2572 0 
L 1628 1806 
L 1122 1403 
L 850 0 
L 256 0 
L 938 3500 
z
" transform="scale(0.015625)"/>
       <path id="ArialMT-28" d="M 1497 -1347 
Q 1031 -759 709 28 
Q 388 816 388 1659 
Q 388 2403 628 3084 
Q 909 3875 1497 4659 
L 1900 4659 
Q 1522 4009 1400 3731 
Q 1209 3300 1100 2831 
Q 966 2247 966 1656 
Q 966 153 1900 -1347 
L 1497 -1347 
z
" transform="scale(0.015625)"/>
       <path id="ArialMT-2f" d="M 0 -78 
L 1328 4659 
L 1778 4659 
L 453 -78 
L 0 -78 
z
" transform="scale(0.015625)"/>
       <path id="ArialMT-4c" d="M 469 0 
L 469 4581 
L 1075 4581 
L 1075 541 
L 3331 541 
L 3331 0 
L 469 0 
z
" transform="scale(0.015625)"/>
       <path id="ArialMT-29" d="M 791 -1347 
L 388 -1347 
Q 1322 153 1322 1656 
Q 1322 2244 1188 2822 
Q 1081 3291 891 3722 
Q 769 4003 388 4659 
L 791 4659 
Q 1378 3875 1659 3084 
Q 1900 2403 1900 1659 
Q 1900 816 1576 28 
Q 1253 -759 791 -1347 
z
" transform="scale(0.015625)"/>
      </defs>
      <use xlink:href="#ArialMT-43" transform="translate(0 0.203125)"/>
      <use xlink:href="#ArialMT-75" transform="translate(72.216797 0.203125)"/>
      <use xlink:href="#ArialMT-72" transform="translate(127.832031 0.203125)"/>
      <use xlink:href="#ArialMT-76" transform="translate(161.132812 0.203125)"/>
      <use xlink:href="#ArialMT-61" transform="translate(211.132812 0.203125)"/>
      <use xlink:href="#ArialMT-74" transform="translate(266.748047 0.203125)"/>
      <use xlink:href="#ArialMT-75" transform="translate(294.53125 0.203125)"/>
      <use xlink:href="#ArialMT-72" transform="translate(350.146484 0.203125)"/>
      <use xlink:href="#ArialMT-65" transform="translate(383.447266 0.203125)"/>
      <use xlink:href="#ArialMT-20" transform="translate(439.0625 0.203125)"/>
      <use xlink:href="#DejaVuSans-Oblique-3ba" transform="translate(466.845703 0.203125)"/>
      <use xlink:href="#ArialMT-20" transform="translate(525.78125 0.203125)"/>
      <use xlink:href="#ArialMT-28" transform="translate(553.564453 0.203125)"/>
      <use xlink:href="#ArialMT-31" transform="translate(586.865234 0.203125)"/>
      <use xlink:href="#ArialMT-2f" transform="translate(642.480469 0.203125)"/>
      <use xlink:href="#ArialMT-4c" transform="translate(670.263672 0.203125)"/>
      <use xlink:href="#ArialMT-29" transform="translate(725.878906 0.203125)"/>
     </g>
    </g>
   </g>
   <g id="line2d_7">
    <path d="M 55.350266 50.530308 
L 55.933256 34.664332 
L 56.80774 40.645426 
L 57.390729 40.73993 
L 57.682224 38.465823 
L 57.973719 37.711145 
L 58.265213 39.955997 
L 59.139697 42.914174 
L 59.431192 42.647324 
L 59.722687 41.887273 
L 60.014182 42.949358 
L 60.597171 40.186257 
L 60.888666 40.12016 
L 61.18016 38.991344 
L 61.471655 37.218656 
L 61.76315 37.742904 
L 62.054644 37.82569 
L 62.929129 42.057144 
L 63.220623 42.704607 
L 63.512118 43.046483 
L 64.386602 37.6984 
L 64.678097 37.502712 
L 65.261086 40.098805 
L 65.844076 44.662306 
L 66.13557 44.941706 
L 66.427065 45.045988 
L 67.010054 46.037175 
L 67.301549 44.961287 
L 67.593044 46.135021 
L 67.884539 46.762763 
L 68.176033 47.91481 
L 68.467528 49.745873 
L 69.342012 57.156454 
L 69.633507 61.756315 
L 69.925001 62.793566 
L 70.507991 68.865059 
L 71.965464 95.61459 
L 72.256959 98.401424 
L 72.548454 99.179863 
L 72.839948 99.493192 
L 73.131443 101.390339 
L 73.422938 102.126104 
L 73.714433 102.115326 
L 74.005927 100.684771 
L 74.297422 100.61756 
L 74.588917 101.008814 
L 74.880411 101.086369 
L 75.171906 100.628068 
L 75.463401 101.88998 
L 75.754895 102.395866 
L 76.04639 101.847758 
L 76.337885 102.091522 
L 76.62938 102.748272 
L 76.920874 104.483551 
L 77.212369 103.643284 
L 77.503864 104.655237 
L 77.795358 103.990884 
L 78.378348 105.467438 
L 78.669843 107.80655 
L 78.961337 108.867081 
L 79.252832 109.461392 
L 79.544327 111.001196 
L 79.835821 111.312891 
L 80.127316 112.88099 
L 80.418811 112.390319 
L 80.710305 113.939358 
L 81.0018 114.280583 
L 81.293295 114.919871 
L 81.58479 114.261236 
L 81.876284 115.412527 
L 82.167779 115.56428 
L 82.459274 113.78897 
L 82.750768 109.653865 
L 83.916747 80.921476 
L 84.208242 76.787833 
L 84.499737 75.752312 
L 85.374221 68.628886 
L 85.665715 66.757804 
L 85.95721 65.842685 
L 86.540199 65.803553 
L 86.831694 66.743252 
L 87.414684 70.496573 
L 88.289168 71.172213 
L 88.872157 69.868231 
L 89.163652 71.426128 
L 89.455147 71.705043 
L 89.746641 73.242347 
L 90.621125 80.345602 
L 91.204115 86.017293 
L 92.370094 96.330061 
L 92.953083 98.624408 
L 93.244578 99.654972 
L 93.536072 99.80677 
L 93.827567 100.664204 
L 94.119062 100.78969 
L 94.993546 101.676448 
L 95.576535 103.03492 
L 96.159525 100.71722 
L 96.451019 100.584858 
L 97.034009 96.575674 
L 97.325503 95.901521 
L 97.616998 94.543892 
L 97.908493 92.580132 
L 98.491482 92.120691 
L 98.782977 91.316789 
L 99.074472 88.212792 
L 99.657461 77.134567 
L 100.531945 58.182996 
L 101.697924 44.49559 
L 101.989419 44.389929 
L 102.280913 44.128163 
L 102.572408 44.300548 
L 102.863903 46.214284 
L 103.155398 46.532975 
L 103.446892 46.351019 
L 103.738387 46.331152 
L 104.029882 46.462965 
L 104.321376 47.017569 
L 104.612871 48.805473 
L 104.904366 49.547517 
L 105.19586 49.574807 
L 105.487355 50.051095 
L 105.77885 49.689329 
L 106.361839 46.938796 
L 106.653334 46.559159 
L 106.944829 45.802569 
L 107.236323 45.810988 
L 107.527818 46.315547 
L 107.819313 47.273761 
L 108.110807 48.897304 
L 108.402302 49.625351 
L 108.693797 49.812058 
L 108.985292 50.912042 
L 109.276786 51.05045 
L 109.568281 50.51497 
L 109.859776 51.15976 
L 110.15127 52.773121 
L 110.73426 52.005154 
L 111.317249 54.477534 
L 111.608744 55.102234 
L 112.483228 61.230785 
L 112.774723 61.458244 
L 113.066217 62.405456 
L 113.357712 62.966048 
L 113.649207 62.561008 
L 113.940702 63.398047 
L 114.232196 65.105118 
L 114.815186 67.247191 
L 115.10668 68.729629 
L 115.398175 67.798663 
L 116.564154 59.55271 
L 116.855649 58.445485 
L 117.147143 58.674752 
L 117.438638 58.731113 
L 117.730133 58.544446 
L 118.021627 56.138103 
L 118.313122 55.012247 
L 118.604617 53.270498 
L 118.896111 49.725252 
L 119.187606 48.331361 
L 119.479101 48.609635 
L 119.770596 47.939371 
L 120.06209 48.329302 
L 120.353585 49.365789 
L 120.64508 49.464501 
L 120.936574 48.810694 
L 122.394048 44.364562 
L 122.685543 43.841743 
L 122.977037 43.964751 
L 123.268532 43.667739 
L 123.560027 43.02587 
L 123.851521 43.463795 
L 124.143016 42.397233 
L 124.434511 40.460773 
L 124.726005 42.067407 
L 125.0175 41.636222 
L 125.308995 41.635127 
L 125.891984 42.635992 
L 126.183479 40.045646 
L 126.474974 42.532066 
L 126.766468 43.505106 
L 127.349458 48.003573 
L 127.640953 52.47986 
L 127.932447 52.230434 
L 128.223942 53.06286 
L 128.515437 52.902401 
L 128.806931 52.337229 
L 129.098426 49.637044 
L 129.681415 49.060297 
L 129.97291 49.964174 
L 130.264405 48.980661 
L 130.5559 49.793263 
L 130.847394 51.550719 
L 131.138889 51.342971 
L 131.430384 51.294881 
L 131.721878 53.236885 
L 132.013373 53.034749 
L 132.304868 52.275691 
L 132.596362 53.919695 
L 132.887857 54.13853 
L 133.179352 56.217473 
L 133.470847 57.39408 
L 133.762341 57.70799 
L 134.053836 59.786267 
L 134.345331 60.811636 
L 134.636825 60.03485 
L 135.219815 61.94427 
L 135.511309 61.151561 
L 135.802804 61.608793 
L 136.677288 71.201007 
L 137.551772 86.598576 
L 137.843267 90.990026 
L 138.134762 93.592034 
L 138.426257 94.246923 
L 138.717751 95.232635 
L 139.009246 95.486822 
L 139.300741 96.628302 
L 139.88373 100.337512 
L 140.175225 99.744599 
L 140.466719 101.287589 
L 140.758214 101.663555 
L 141.049709 101.695846 
L 141.341204 100.330032 
L 141.924193 102.585728 
L 142.215688 102.5465 
L 142.507182 104.04951 
L 142.798677 106.842781 
L 143.090172 108.058023 
L 143.381666 108.602921 
L 143.673161 110.910625 
L 143.964656 111.66236 
L 144.547645 114.258196 
L 144.83914 114.656711 
L 145.130635 114.660524 
L 145.422129 115.621546 
L 145.713624 114.779255 
L 146.296613 114.341975 
L 146.879603 112.389377 
L 147.462592 109.953285 
L 148.045582 107.444615 
L 148.628571 103.338971 
L 149.21156 99.626862 
L 149.503055 96.650103 
L 149.79455 96.109978 
L 150.086045 93.035176 
L 151.252023 72.158372 
L 151.835013 62.319898 
L 152.126508 59.837615 
L 152.418002 58.821934 
L 152.709497 57.129823 
L 153.000992 56.792044 
L 153.292486 56.761689 
L 153.583981 57.22826 
L 154.458465 52.99687 
L 154.74996 53.125174 
L 155.041455 51.275848 
L 155.332949 51.301261 
L 155.624444 51.538937 
L 155.915939 53.474945 
L 156.207433 52.651481 
L 156.498928 54.211046 
L 157.664907 57.997184 
L 157.956402 58.094964 
L 158.247896 56.821825 
L 158.539391 57.017893 
L 158.830886 56.47793 
L 159.12238 56.26232 
L 159.996864 53.294475 
L 160.871349 48.699677 
L 161.162843 48.410757 
L 161.454338 47.934792 
L 161.745833 46.867185 
L 163.494801 35.975511 
L 164.07779 35.242767 
L 164.369285 33.786302 
L 164.952274 33.580107 
L 165.535264 34.022838 
L 165.826759 34.323905 
L 166.701243 37.863806 
L 166.992737 39.182296 
L 168.741706 52.078815 
L 169.0332 56.354704 
L 169.324695 58.35727 
L 169.907684 65.607414 
L 170.199179 70.712121 
L 170.490674 71.357899 
L 170.782168 73.76959 
L 171.073663 74.767634 
L 171.365158 74.661878 
L 171.656653 73.762995 
L 171.948147 74.313307 
L 172.531137 76.361039 
L 172.822631 76.734363 
L 173.405621 79.127284 
L 173.697115 79.317807 
L 173.98861 78.570296 
L 174.280105 79.047924 
L 174.5716 78.836892 
L 174.863094 78.385555 
L 175.154589 78.458876 
L 175.737578 81.335196 
L 176.029073 83.42141 
L 177.195052 97.317528 
L 177.486547 96.222283 
L 178.069536 90.044126 
L 178.361031 89.305893 
L 178.652525 87.398174 
L 178.94402 90.347953 
L 179.52701 99.665836 
L 180.401494 106.029552 
L 180.692988 106.345767 
L 181.567472 108.919242 
L 181.858967 108.947479 
L 182.733451 108.329541 
L 183.024946 107.35895 
L 183.316441 107.547472 
L 183.89943 108.515977 
L 184.190925 107.964735 
L 184.482419 108.95253 
L 184.773914 109.349691 
L 185.065409 110.257468 
L 185.356904 110.513784 
L 185.648398 111.336886 
L 185.939893 111.296172 
L 186.231388 112.237243 
L 186.522882 113.58177 
L 186.814377 113.847763 
L 187.105872 115.661086 
L 187.397366 116.772803 
L 187.688861 117.182247 
L 187.980356 116.198659 
L 188.271851 116.228127 
L 188.563345 114.821023 
L 188.85484 115.114502 
L 189.146335 114.668837 
L 189.437829 115.816885 
L 189.729324 116.139492 
L 190.020819 115.71126 
L 190.312314 114.869301 
L 190.603808 114.383288 
L 190.895303 111.174826 
L 191.478292 107.278471 
L 191.769787 106.542336 
L 192.061282 105.147362 
L 192.352776 105.167362 
L 192.644271 104.926567 
L 193.227261 103.585779 
L 193.81025 102.717485 
L 194.101745 100.583764 
L 194.393239 99.836178 
L 194.684734 96.500379 
L 195.267723 93.743523 
L 195.850713 94.919578 
L 196.142208 94.968986 
L 196.433702 93.107608 
L 196.725197 93.242976 
L 197.016692 92.534884 
L 197.308186 93.693774 
L 197.599681 93.499627 
L 197.891176 93.803843 
L 199.640144 71.719497 
L 199.931639 68.535325 
L 200.223133 67.295989 
L 200.514628 67.243539 
L 200.806123 68.72339 
L 201.097618 69.079657 
L 201.389112 70.687017 
L 201.680607 71.219615 
L 201.972102 71.396636 
L 202.263596 70.255895 
L 202.555091 69.577116 
L 202.846586 68.552401 
L 203.13808 68.716822 
L 203.429575 68.414507 
L 203.72107 67.897225 
L 204.012565 66.572633 
L 204.304059 65.796959 
L 204.595554 65.811476 
L 205.178543 69.203736 
L 205.761533 74.28865 
L 206.053027 75.329261 
L 206.344522 75.089922 
L 206.927512 75.139837 
L 207.510501 73.715193 
L 208.09349 74.216043 
L 208.384985 74.045427 
L 208.67648 74.841347 
L 208.967974 74.520866 
L 209.259469 74.976793 
L 209.550964 74.949792 
L 209.842459 75.106319 
L 210.133953 74.566258 
L 210.425448 75.584156 
L 210.716943 74.73056 
L 211.008437 75.115425 
L 211.299932 74.923287 
L 211.591427 75.187403 
L 211.882921 73.416597 
L 212.174416 73.156623 
L 212.465911 71.395994 
L 212.757406 71.44792 
L 213.0489 70.347883 
L 213.340395 70.168785 
L 213.63189 69.843712 
L 213.923384 70.659391 
L 214.214879 69.758862 
L 214.506374 70.10026 
L 214.797869 71.225276 
L 215.089363 71.442034 
L 215.380858 69.966253 
L 215.672353 69.533118 
L 215.963847 68.681389 
L 216.255342 68.277161 
L 216.546837 68.24038 
L 216.838331 69.969811 
L 217.129826 70.544857 
L 217.421321 71.39605 
L 217.712816 71.795901 
L 218.00431 72.433821 
L 218.295805 72.637728 
L 218.5873 73.840772 
L 218.878794 75.841157 
L 219.170289 77.051507 
L 219.753278 80.844941 
L 220.044773 82.039386 
L 220.336268 81.704155 
L 220.627763 83.488274 
L 221.210752 81.828813 
L 221.502247 82.210279 
L 221.793741 81.826603 
L 222.085236 79.901029 
L 222.376731 79.519182 
L 222.668225 79.768934 
L 222.95972 77.947256 
L 223.251215 79.038405 
L 224.125699 79.707179 
L 224.417194 81.667373 
L 224.708688 81.0604 
L 225.000183 81.03817 
L 225.291678 80.360239 
L 226.166162 76.175856 
L 226.457657 78.209805 
L 226.749151 77.350215 
L 227.040646 78.563264 
L 227.332141 78.328769 
L 227.623635 78.419183 
L 227.91513 77.700035 
L 228.206625 79.475108 
L 228.789614 81.197422 
L 229.081109 82.554658 
L 229.372604 82.286982 
L 229.664098 81.69203 
L 229.955593 80.500626 
L 229.955593 80.500626 
" clip-path="url(#p43f2b51cae)" style="fill: none; stroke: #000000; stroke-width: 1.5; stroke-linecap: square"/>
   </g>
   <g id="patch_3">
    <path d="M 46.62 121.362354 
L 46.62 29.4 
" style="fill: none; stroke: #000000; stroke-width: 0.8; stroke-linejoin: miter; stroke-linecap: square"/>
   </g>
   <g id="patch_4">
    <path d="M 46.62 121.362354 
L 238.685859 121.362354 
" style="fill: none; stroke: #000000; stroke-width: 0.8; stroke-linejoin: miter; stroke-linecap: square"/>
   </g>
   <g id="text_8">
    <!-- Curvature and RMDL/R Ca2+ activity -->
    <g transform="translate(24.01268 23.4)scale(0.144 -0.144)">
     <defs>
      <path id="ArialMT-6e" d="M 422 0 
L 422 3319 
L 928 3319 
L 928 2847 
Q 1294 3394 1984 3394 
Q 2284 3394 2536 3286 
Q 2788 3178 2913 3003 
Q 3038 2828 3088 2588 
Q 3119 2431 3119 2041 
L 3119 0 
L 2556 0 
L 2556 2019 
Q 2556 2363 2490 2533 
Q 2425 2703 2258 2804 
Q 2091 2906 1866 2906 
Q 1506 2906 1245 2678 
Q 984 2450 984 1813 
L 984 0 
L 422 0 
z
" transform="scale(0.015625)"/>
      <path id="ArialMT-64" d="M 2575 0 
L 2575 419 
Q 2259 -75 1647 -75 
Q 1250 -75 917 144 
Q 584 363 401 755 
Q 219 1147 219 1656 
Q 219 2153 384 2558 
Q 550 2963 881 3178 
Q 1213 3394 1622 3394 
Q 1922 3394 2156 3267 
Q 2391 3141 2538 2938 
L 2538 4581 
L 3097 4581 
L 3097 0 
L 2575 0 
z
M 797 1656 
Q 797 1019 1065 703 
Q 1334 388 1700 388 
Q 2069 388 2326 689 
Q 2584 991 2584 1609 
Q 2584 2291 2321 2609 
Q 2059 2928 1675 2928 
Q 1300 2928 1048 2622 
Q 797 2316 797 1656 
z
" transform="scale(0.015625)"/>
      <path id="ArialMT-52" d="M 503 0 
L 503 4581 
L 2534 4581 
Q 3147 4581 3465 4457 
Q 3784 4334 3975 4021 
Q 4166 3709 4166 3331 
Q 4166 2844 3850 2509 
Q 3534 2175 2875 2084 
Q 3116 1969 3241 1856 
Q 3506 1613 3744 1247 
L 4541 0 
L 3778 0 
L 3172 953 
Q 2906 1366 2734 1584 
Q 2563 1803 2427 1890 
Q 2291 1978 2150 2013 
Q 2047 2034 1813 2034 
L 1109 2034 
L 1109 0 
L 503 0 
z
M 1109 2559 
L 2413 2559 
Q 2828 2559 3062 2645 
Q 3297 2731 3419 2920 
Q 3541 3109 3541 3331 
Q 3541 3656 3305 3865 
Q 3069 4075 2559 4075 
L 1109 4075 
L 1109 2559 
z
" transform="scale(0.015625)"/>
      <path id="ArialMT-4d" d="M 475 0 
L 475 4581 
L 1388 4581 
L 2472 1338 
Q 2622 884 2691 659 
Q 2769 909 2934 1394 
L 4031 4581 
L 4847 4581 
L 4847 0 
L 4263 0 
L 4263 3834 
L 2931 0 
L 2384 0 
L 1059 3900 
L 1059 0 
L 475 0 
z
" transform="scale(0.015625)"/>
      <path id="ArialMT-44" d="M 494 0 
L 494 4581 
L 2072 4581 
Q 2606 4581 2888 4516 
Q 3281 4425 3559 4188 
Q 3922 3881 4101 3404 
Q 4281 2928 4281 2316 
Q 4281 1794 4159 1391 
Q 4038 988 3847 723 
Q 3656 459 3429 307 
Q 3203 156 2883 78 
Q 2563 0 2147 0 
L 494 0 
z
M 1100 541 
L 2078 541 
Q 2531 541 2789 625 
Q 3047 709 3200 863 
Q 3416 1078 3536 1442 
Q 3656 1806 3656 2325 
Q 3656 3044 3420 3430 
Q 3184 3816 2847 3947 
Q 2603 4041 2063 4041 
L 1100 4041 
L 1100 541 
z
" transform="scale(0.015625)"/>
      <path id="ArialMT-32" d="M 3222 541 
L 3222 0 
L 194 0 
Q 188 203 259 391 
Q 375 700 629 1000 
Q 884 1300 1366 1694 
Q 2113 2306 2375 2664 
Q 2638 3022 2638 3341 
Q 2638 3675 2398 3904 
Q 2159 4134 1775 4134 
Q 1369 4134 1125 3890 
Q 881 3647 878 3216 
L 300 3275 
Q 359 3922 746 4261 
Q 1134 4600 1788 4600 
Q 2447 4600 2831 4234 
Q 3216 3869 3216 3328 
Q 3216 3053 3103 2787 
Q 2991 2522 2730 2228 
Q 2469 1934 1863 1422 
Q 1356 997 1212 845 
Q 1069 694 975 541 
L 3222 541 
z
" transform="scale(0.015625)"/>
      <path id="ArialMT-2b" d="M 1603 741 
L 1603 1997 
L 356 1997 
L 356 2522 
L 1603 2522 
L 1603 3769 
L 2134 3769 
L 2134 2522 
L 3381 2522 
L 3381 1997 
L 2134 1997 
L 2134 741 
L 1603 741 
z
" transform="scale(0.015625)"/>
      <path id="ArialMT-63" d="M 2588 1216 
L 3141 1144 
Q 3050 572 2676 248 
Q 2303 -75 1759 -75 
Q 1078 -75 664 370 
Q 250 816 250 1647 
Q 250 2184 428 2587 
Q 606 2991 970 3192 
Q 1334 3394 1763 3394 
Q 2303 3394 2647 3120 
Q 2991 2847 3088 2344 
L 2541 2259 
Q 2463 2594 2264 2762 
Q 2066 2931 1784 2931 
Q 1359 2931 1093 2626 
Q 828 2322 828 1663 
Q 828 994 1084 691 
Q 1341 388 1753 388 
Q 2084 388 2306 591 
Q 2528 794 2588 1216 
z
" transform="scale(0.015625)"/>
      <path id="ArialMT-69" d="M 425 3934 
L 425 4581 
L 988 4581 
L 988 3934 
L 425 3934 
z
M 425 0 
L 425 3319 
L 988 3319 
L 988 0 
L 425 0 
z
" transform="scale(0.015625)"/>
      <path id="ArialMT-79" d="M 397 -1278 
L 334 -750 
Q 519 -800 656 -800 
Q 844 -800 956 -737 
Q 1069 -675 1141 -563 
Q 1194 -478 1313 -144 
Q 1328 -97 1363 -6 
L 103 3319 
L 709 3319 
L 1400 1397 
Q 1534 1031 1641 628 
Q 1738 1016 1872 1384 
L 2581 3319 
L 3144 3319 
L 1881 -56 
Q 1678 -603 1566 -809 
Q 1416 -1088 1222 -1217 
Q 1028 -1347 759 -1347 
Q 597 -1347 397 -1278 
z
" transform="scale(0.015625)"/>
     </defs>
     <use xlink:href="#ArialMT-43"/>
     <use xlink:href="#ArialMT-75" x="72.216797"/>
     <use xlink:href="#ArialMT-72" x="127.832031"/>
     <use xlink:href="#ArialMT-76" x="161.132812"/>
     <use xlink:href="#ArialMT-61" x="211.132812"/>
     <use xlink:href="#ArialMT-74" x="266.748047"/>
     <use xlink:href="#ArialMT-75" x="294.53125"/>
     <use xlink:href="#ArialMT-72" x="350.146484"/>
     <use xlink:href="#ArialMT-65" x="383.447266"/>
     <use xlink:href="#ArialMT-20" x="439.0625"/>
     <use xlink:href="#ArialMT-61" x="466.845703"/>
     <use xlink:href="#ArialMT-6e" x="522.460938"/>
     <use xlink:href="#ArialMT-64" x="578.076172"/>
     <use xlink:href="#ArialMT-20" x="633.691406"/>
     <use xlink:href="#ArialMT-52" x="661.474609"/>
     <use xlink:href="#ArialMT-4d" x="733.691406"/>
     <use xlink:href="#ArialMT-44" x="816.992188"/>
     <use xlink:href="#ArialMT-4c" x="889.208984"/>
     <use xlink:href="#ArialMT-2f" x="944.824219"/>
     <use xlink:href="#ArialMT-52" x="972.607422"/>
     <use xlink:href="#ArialMT-20" x="1044.824219"/>
     <use xlink:href="#ArialMT-43" x="1072.607422"/>
     <use xlink:href="#ArialMT-61" x="1144.824219"/>
     <use xlink:href="#ArialMT-32" x="1200.439453"/>
     <use xlink:href="#ArialMT-2b" x="1256.054688"/>
     <use xlink:href="#ArialMT-20" x="1314.453125"/>
     <use xlink:href="#ArialMT-61" x="1342.236328"/>
     <use xlink:href="#ArialMT-63" x="1397.851562"/>
     <use xlink:href="#ArialMT-74" x="1447.851562"/>
     <use xlink:href="#ArialMT-69" x="1475.634766"/>
     <use xlink:href="#ArialMT-76" x="1497.851562"/>
     <use xlink:href="#ArialMT-69" x="1547.851562"/>
     <use xlink:href="#ArialMT-74" x="1570.068359"/>
     <use xlink:href="#ArialMT-79" x="1597.851562"/>
    </g>
   </g>
  </g>
  <g id="axes_2">
   <g id="patch_5">
    <path d="M 46.62 244.98 
L 238.685859 244.98 
L 238.685859 153.017646 
L 46.62 153.017646 
z
" style="fill: #ffffff"/>
   </g>
   <g id="matplotlib.axis_3">
    <g id="xtick_4">
     <g id="line2d_8">
      <g>
       <use xlink:href="#mf9d1a5b0c2" x="55.350266" y="244.98" style="stroke: #000000; stroke-width: 0.8"/>
      </g>
     </g>
     <g id="text_9">
      <!-- 0 -->
      <g transform="translate(52.013704 257.069375)scale(0.12 -0.12)">
       <use xlink:href="#ArialMT-30"/>
      </g>
     </g>
    </g>
    <g id="xtick_5">
     <g id="line2d_9">
      <g>
       <use xlink:href="#mf9d1a5b0c2" x="128.223942" y="244.98" style="stroke: #000000; stroke-width: 0.8"/>
      </g>
     </g>
     <g id="text_10">
      <!-- 50 -->
      <g transform="translate(121.550817 257.069375)scale(0.12 -0.12)">
       <use xlink:href="#ArialMT-35"/>
       <use xlink:href="#ArialMT-30" x="55.615234"/>
      </g>
     </g>
    </g>
    <g id="xtick_6">
     <g id="line2d_10">
      <g>
       <use xlink:href="#mf9d1a5b0c2" x="201.097618" y="244.98" style="stroke: #000000; stroke-width: 0.8"/>
      </g>
     </g>
     <g id="text_11">
      <!-- 100 -->
      <g transform="translate(191.08793 257.069375)scale(0.12 -0.12)">
       <use xlink:href="#ArialMT-31"/>
       <use xlink:href="#ArialMT-30" x="55.615234"/>
       <use xlink:href="#ArialMT-30" x="111.230469"/>
      </g>
     </g>
    </g>
    <g id="text_12">
     <!-- time (s) -->
     <g transform="translate(122.656055 272.19)scale(0.12 -0.12)">
      <defs>
       <path id="ArialMT-6d" d="M 422 0 
L 422 3319 
L 925 3319 
L 925 2853 
Q 1081 3097 1340 3245 
Q 1600 3394 1931 3394 
Q 2300 3394 2536 3241 
Q 2772 3088 2869 2813 
Q 3263 3394 3894 3394 
Q 4388 3394 4653 3120 
Q 4919 2847 4919 2278 
L 4919 0 
L 4359 0 
L 4359 2091 
Q 4359 2428 4304 2576 
Q 4250 2725 4106 2815 
Q 3963 2906 3769 2906 
Q 3419 2906 3187 2673 
Q 2956 2441 2956 1928 
L 2956 0 
L 2394 0 
L 2394 2156 
Q 2394 2531 2256 2718 
Q 2119 2906 1806 2906 
Q 1569 2906 1367 2781 
Q 1166 2656 1075 2415 
Q 984 2175 984 1722 
L 984 0 
L 422 0 
z
" transform="scale(0.015625)"/>
       <path id="ArialMT-73" d="M 197 991 
L 753 1078 
Q 800 744 1014 566 
Q 1228 388 1613 388 
Q 2000 388 2187 545 
Q 2375 703 2375 916 
Q 2375 1106 2209 1216 
Q 2094 1291 1634 1406 
Q 1016 1563 777 1677 
Q 538 1791 414 1992 
Q 291 2194 291 2438 
Q 291 2659 392 2848 
Q 494 3038 669 3163 
Q 800 3259 1026 3326 
Q 1253 3394 1513 3394 
Q 1903 3394 2198 3281 
Q 2494 3169 2634 2976 
Q 2775 2784 2828 2463 
L 2278 2388 
Q 2241 2644 2061 2787 
Q 1881 2931 1553 2931 
Q 1166 2931 1000 2803 
Q 834 2675 834 2503 
Q 834 2394 903 2306 
Q 972 2216 1119 2156 
Q 1203 2125 1616 2013 
Q 2213 1853 2448 1751 
Q 2684 1650 2818 1456 
Q 2953 1263 2953 975 
Q 2953 694 2789 445 
Q 2625 197 2315 61 
Q 2006 -75 1616 -75 
Q 969 -75 630 194 
Q 291 463 197 991 
z
" transform="scale(0.015625)"/>
      </defs>
      <use xlink:href="#ArialMT-74"/>
      <use xlink:href="#ArialMT-69" x="27.783203"/>
      <use xlink:href="#ArialMT-6d" x="50"/>
      <use xlink:href="#ArialMT-65" x="133.300781"/>
      <use xlink:href="#ArialMT-20" x="188.916016"/>
      <use xlink:href="#ArialMT-28" x="216.699219"/>
      <use xlink:href="#ArialMT-73" x="250"/>
      <use xlink:href="#ArialMT-29" x="300"/>
     </g>
    </g>
   </g>
   <g id="matplotlib.axis_4">
    <g id="ytick_4">
     <g id="line2d_11">
      <g>
       <use xlink:href="#mf52cd12b2b" x="46.62" y="236.262904" style="stroke: #000000; stroke-width: 0.8"/>
      </g>
     </g>
     <g id="text_13">
      <!-- −2 -->
      <g transform="translate(29.438125 240.557591)scale(0.12 -0.12)">
       <use xlink:href="#ArialMT-2212"/>
       <use xlink:href="#ArialMT-32" x="58.398438"/>
      </g>
     </g>
    </g>
    <g id="ytick_5">
     <g id="line2d_12">
      <g>
       <use xlink:href="#mf52cd12b2b" x="46.62" y="202.36013" style="stroke: #000000; stroke-width: 0.8"/>
      </g>
     </g>
     <g id="text_14">
      <!-- 0 -->
      <g transform="translate(36.446875 206.654818)scale(0.12 -0.12)">
       <use xlink:href="#ArialMT-30"/>
      </g>
     </g>
    </g>
    <g id="ytick_6">
     <g id="line2d_13">
      <g>
       <use xlink:href="#mf52cd12b2b" x="46.62" y="168.457357" style="stroke: #000000; stroke-width: 0.8"/>
      </g>
     </g>
     <g id="text_15">
      <!-- 2 -->
      <g transform="translate(36.446875 172.752045)scale(0.12 -0.12)">
       <use xlink:href="#ArialMT-32"/>
      </g>
     </g>
    </g>
    <g id="text_16">
     <!-- $\frac{d\kappa}{dt}$ -->
     <g transform="translate(19.498125 193.958823)scale(0.12 -0.12)">
      <defs>
       <path id="DejaVuSans-Oblique-64" d="M 2675 525 
Q 2444 222 2128 65 
Q 1813 -91 1428 -91 
Q 903 -91 598 267 
Q 294 625 294 1247 
Q 294 1766 478 2236 
Q 663 2706 1013 3078 
Q 1244 3325 1534 3454 
Q 1825 3584 2144 3584 
Q 2481 3584 2739 3421 
Q 2997 3259 3138 2956 
L 3513 4863 
L 4091 4863 
L 3144 0 
L 2566 0 
L 2675 525 
z
M 891 1350 
Q 891 897 1095 644 
Q 1300 391 1663 391 
Q 1931 391 2161 520 
Q 2391 650 2566 903 
Q 2750 1166 2856 1509 
Q 2963 1853 2963 2188 
Q 2963 2622 2758 2865 
Q 2553 3109 2194 3109 
Q 1922 3109 1687 2981 
Q 1453 2853 1288 2613 
Q 1106 2353 998 2009 
Q 891 1666 891 1350 
z
" transform="scale(0.015625)"/>
       <path id="DejaVuSans-Oblique-74" d="M 2706 3500 
L 2619 3053 
L 1472 3053 
L 1100 1153 
Q 1081 1047 1072 975 
Q 1063 903 1063 863 
Q 1063 663 1183 572 
Q 1303 481 1569 481 
L 2150 481 
L 2053 0 
L 1503 0 
Q 991 0 739 200 
Q 488 400 488 806 
Q 488 878 497 964 
Q 506 1050 525 1153 
L 897 3053 
L 409 3053 
L 500 3500 
L 978 3500 
L 1172 4494 
L 1747 4494 
L 1556 3500 
L 2706 3500 
z
" transform="scale(0.015625)"/>
      </defs>
      <use xlink:href="#DejaVuSans-Oblique-64" transform="translate(0 44.810938)scale(0.7)"/>
      <use xlink:href="#DejaVuSans-Oblique-3ba" transform="translate(44.433594 44.810938)scale(0.7)"/>
      <use xlink:href="#DejaVuSans-Oblique-64" transform="translate(7 -40.623437)scale(0.7)"/>
      <use xlink:href="#DejaVuSans-Oblique-74" transform="translate(51.433594 -40.623437)scale(0.7)"/>
      <path d="M 0 18.815625 
L 0 25.065625 
L 85.688477 25.065625 
L 85.688477 18.815625 
L 0 18.815625 
z
"/>
     </g>
    </g>
   </g>
   <g id="line2d_14">
    <path d="M 55.350266 188.041209 
L 55.641761 185.665138 
L 55.933256 187.266345 
L 56.516245 195.605728 
L 57.390729 203.577129 
L 57.682224 204.493108 
L 57.973719 204.585381 
L 58.556708 205.929688 
L 58.848203 206.018993 
L 59.139697 205.403907 
L 59.431192 204.197527 
L 60.597171 197.155419 
L 60.888666 197.287216 
L 61.18016 198.098828 
L 61.471655 199.730995 
L 62.346139 206.453393 
L 62.637634 206.671571 
L 62.929129 205.817173 
L 64.095107 199.099847 
L 64.386602 200.48106 
L 65.552581 210.623661 
L 65.844076 211.044517 
L 66.427065 208.729678 
L 66.71856 207.594639 
L 67.010054 206.954441 
L 67.301549 207.074383 
L 67.884539 211.085343 
L 68.759023 220.069503 
L 70.216496 232.962555 
L 70.799486 239.554458 
L 71.09098 240.799893 
L 71.382475 240.679079 
L 71.67397 238.279099 
L 71.965464 234.318865 
L 73.422938 207.931568 
L 73.714433 204.772619 
L 74.005927 203.139408 
L 74.880411 202.844952 
L 75.171906 203.3223 
L 75.463401 204.622229 
L 75.754895 205.10268 
L 76.337885 205.457486 
L 76.920874 206.094541 
L 77.212369 205.965244 
L 78.378348 209.560827 
L 78.669843 210.700707 
L 78.961337 211.006844 
L 79.544327 210.973217 
L 80.127316 209.342546 
L 80.418811 208.157107 
L 80.710305 207.814781 
L 81.0018 206.546626 
L 81.293295 204.252993 
L 81.876284 194.531451 
L 82.459274 177.861522 
L 83.042263 161.805068 
L 83.333758 158.019709 
L 83.625252 157.197753 
L 83.916747 159.583165 
L 84.499737 170.88271 
L 85.374221 186.603054 
L 86.248705 199.391835 
L 86.831694 206.16447 
L 87.123189 208.062294 
L 87.414684 208.16222 
L 87.706178 207.480094 
L 88.289168 205.751645 
L 88.580662 205.4749 
L 88.872157 206.421047 
L 89.455147 211.55357 
L 90.329631 220.85654 
L 90.91262 224.30415 
L 91.204115 224.659871 
L 91.495609 224.245834 
L 91.787104 223.141914 
L 92.370094 218.916153 
L 93.244578 211.213097 
L 93.827567 207.565558 
L 95.285041 202.688639 
L 96.742514 192.657457 
L 97.034009 191.959159 
L 97.325503 192.058599 
L 97.616998 191.923755 
L 97.908493 190.941035 
L 98.199988 189.166408 
L 98.491482 185.721784 
L 99.948956 158.791271 
L 100.24045 158.047136 
L 100.531945 160.470064 
L 101.114935 170.782046 
L 102.280913 195.912425 
L 102.863903 203.043552 
L 103.155398 204.870179 
L 103.446892 205.869866 
L 104.321376 206.850518 
L 104.612871 206.467159 
L 105.19586 203.927102 
L 106.070345 198.692873 
L 106.361839 198.202318 
L 106.653334 199.13114 
L 107.236323 202.490831 
L 107.819313 206.72796 
L 108.110807 207.729156 
L 108.693797 207.822768 
L 108.985292 207.457732 
L 109.568281 205.86144 
L 109.859776 206.036598 
L 110.442765 206.718037 
L 110.73426 207.822891 
L 111.317249 211.271557 
L 111.900239 213.186585 
L 112.191733 213.487587 
L 112.483228 212.75118 
L 113.066217 210.567604 
L 113.649207 209.30825 
L 113.940702 209.241208 
L 114.232196 208.781014 
L 114.523691 207.497122 
L 115.10668 202.184384 
L 115.68967 194.800473 
L 115.981164 192.633676 
L 116.272659 191.726901 
L 116.564154 191.623375 
L 116.855649 192.389226 
L 117.147143 193.62982 
L 117.438638 193.67217 
L 118.604617 190.379335 
L 118.896111 190.687781 
L 120.353585 200.440845 
L 120.64508 200.359331 
L 121.519564 197.090029 
L 121.811058 196.587408 
L 122.102553 196.456956 
L 123.268532 198.718266 
L 124.434511 199.962934 
L 125.308995 202.203715 
L 125.891984 205.411921 
L 127.057963 215.075956 
L 127.349458 215.508348 
L 127.640953 214.460126 
L 129.098426 198.919878 
L 129.389921 198.987916 
L 130.264405 203.060749 
L 130.847394 206.217917 
L 131.430384 206.538619 
L 131.721878 207.191315 
L 132.304868 207.556425 
L 132.887857 209.875603 
L 133.179352 210.628522 
L 133.470847 210.584483 
L 133.762341 210.679909 
L 134.053836 210.381324 
L 134.345331 209.000165 
L 134.636825 208.26173 
L 134.92832 208.579468 
L 135.219815 209.915227 
L 135.511309 212.405697 
L 136.094299 222.456937 
L 136.677288 232.56402 
L 136.968783 235.672961 
L 137.260278 236.56529 
L 137.551772 234.37853 
L 138.134762 226.125366 
L 138.717751 217.103459 
L 139.009246 214.086043 
L 139.592235 211.305735 
L 140.175225 208.689246 
L 140.466719 208.04419 
L 141.049709 205.959159 
L 141.341204 205.978436 
L 142.507182 212.009747 
L 142.798677 213.584942 
L 143.090172 214.135769 
L 143.673161 213.623362 
L 143.964656 212.745825 
L 144.547645 209.539383 
L 145.422129 203.824336 
L 146.296613 197.789447 
L 147.462592 191.658066 
L 148.920066 185.346743 
L 149.503055 180.358523 
L 149.79455 177.358318 
L 150.669034 165.177039 
L 150.960529 163.822592 
L 151.252023 163.862428 
L 151.543518 166.078237 
L 152.126508 177.102104 
L 152.709497 187.761293 
L 153.292486 194.73817 
L 153.583981 195.782341 
L 153.875476 195.5795 
L 154.16697 195.549337 
L 155.041455 198.570744 
L 156.207433 206.989656 
L 156.498928 208.395296 
L 156.790423 208.76557 
L 157.081917 208.310579 
L 157.664907 205.860458 
L 159.413875 195.179919 
L 159.996864 193.461696 
L 160.288359 192.757539 
L 160.579854 192.501606 
L 161.162843 192.48553 
L 161.454338 191.901409 
L 162.328822 189.208558 
L 162.620317 189.016642 
L 162.911812 188.996436 
L 163.203306 189.87933 
L 163.494801 191.393332 
L 165.243769 203.321892 
L 165.826759 207.315373 
L 167.284232 217.747152 
L 168.158716 222.653215 
L 169.324695 228.061859 
L 169.61619 228.246523 
L 169.907684 227.616667 
L 170.199179 225.327195 
L 171.365158 210.459863 
L 171.656653 208.126067 
L 171.948147 207.448292 
L 172.239642 207.789041 
L 172.531137 207.630859 
L 173.114126 207.687007 
L 173.405621 206.891898 
L 173.98861 204.314307 
L 174.280105 204.189117 
L 174.5716 204.598653 
L 174.863094 206.045252 
L 175.446084 212.93664 
L 176.029073 220.0459 
L 176.320568 221.329981 
L 176.612063 220.137034 
L 176.903557 216.77732 
L 177.778041 201.644898 
L 178.069536 200.897251 
L 178.361031 203.009399 
L 178.652525 207.043488 
L 179.235515 218.751718 
L 179.52701 221.747749 
L 179.818504 222.193528 
L 180.109999 221.024075 
L 180.401494 218.433284 
L 180.984483 211.219773 
L 181.858967 204.422587 
L 182.150462 203.130249 
L 182.733451 201.736979 
L 183.024946 201.600889 
L 183.316441 202.260424 
L 183.89943 204.038019 
L 185.065409 206.92067 
L 185.356904 207.134422 
L 186.231388 209.056161 
L 186.522882 209.220476 
L 186.814377 208.835435 
L 187.105872 208.199973 
L 187.688861 204.986581 
L 187.980356 203.225804 
L 188.563345 201.48145 
L 188.85484 201.256848 
L 189.146335 201.212017 
L 189.437829 200.874489 
L 189.729324 199.617307 
L 190.895303 190.946573 
L 191.186798 190.277793 
L 191.478292 190.607707 
L 192.061282 193.286691 
L 192.644271 196.182142 
L 192.935766 196.463293 
L 193.227261 195.879226 
L 193.81025 193.231303 
L 194.101745 191.808497 
L 194.393239 191.546112 
L 194.684734 191.600307 
L 194.976229 192.619353 
L 195.559218 196.202889 
L 195.850713 198.03742 
L 196.433702 199.966917 
L 196.725197 200.006128 
L 197.016692 199.026627 
L 197.308186 196.713166 
L 197.891176 188.28414 
L 198.474165 178.807235 
L 198.76566 175.405674 
L 199.057155 174.47837 
L 199.348649 176.340885 
L 199.931639 185.501504 
L 200.806123 201.447644 
L 201.097618 203.755309 
L 201.389112 204.567654 
L 201.680607 204.33996 
L 202.263596 201.16161 
L 202.846586 198.410608 
L 203.13808 197.87309 
L 203.429575 198.072276 
L 203.72107 198.945044 
L 204.012565 200.748339 
L 205.178543 211.783363 
L 205.470038 213.033114 
L 205.761533 212.689054 
L 206.344522 208.038792 
L 206.927512 203.473015 
L 207.219006 201.959146 
L 207.510501 201.394874 
L 208.967974 203.465402 
L 209.259469 203.471075 
L 210.425448 202.359172 
L 211.299932 199.804552 
L 212.174416 196.8733 
L 212.465911 196.856376 
L 213.0489 197.831842 
L 213.923384 201.580968 
L 214.214879 201.91386 
L 214.506374 202.049756 
L 214.797869 201.934311 
L 215.380858 200.32983 
L 215.672353 200.44057 
L 216.255342 202.184289 
L 217.421321 207.871777 
L 218.295805 210.860896 
L 218.878794 213.045461 
L 219.170289 213.616281 
L 219.461784 213.563531 
L 219.753278 212.416841 
L 220.336268 208.371446 
L 221.502247 199.63523 
L 221.793741 198.533515 
L 222.085236 197.961916 
L 222.376731 198.320938 
L 222.95972 200.451982 
L 223.54271 203.406183 
L 223.834204 204.296656 
L 224.125699 204.211022 
L 224.417194 203.525427 
L 225.000183 200.282915 
L 225.291678 198.901837 
L 225.583173 198.198293 
L 225.874667 198.224215 
L 226.166162 199.191359 
L 226.457657 200.894893 
L 226.749151 201.894306 
L 227.332141 204.595508 
L 227.623635 205.760148 
L 228.206625 206.971349 
L 228.49812 206.913125 
L 229.081109 205.409796 
L 229.955593 201.253372 
L 229.955593 201.253372 
" clip-path="url(#pa4a81d33f9)" style="fill: none; stroke: #000000; stroke-opacity: 0.7; stroke-width: 1.5; stroke-linecap: square"/>
   </g>
   <g id="patch_6">
    <path d="M 46.62 244.98 
L 46.62 153.017646 
" style="fill: none; stroke: #000000; stroke-width: 0.8; stroke-linejoin: miter; stroke-linecap: square"/>
   </g>
   <g id="patch_7">
    <path d="M 46.62 244.98 
L 238.685859 244.98 
" style="fill: none; stroke: #000000; stroke-width: 0.8; stroke-linejoin: miter; stroke-linecap: square"/>
   </g>
  </g>
  <g id="axes_3">
   <g id="matplotlib.axis_5">
    <g id="ytick_7">
     <g id="line2d_15">
      <defs>
       <path id="md6ed682d29" d="M 0 0 
L -3.5 0 
" style="stroke: #ff0000; stroke-width: 0.8"/>
      </defs>
      <g>
       <use xlink:href="#md6ed682d29" x="238.685859" y="96.686081" style="fill: #ff0000; stroke: #ff0000; stroke-width: 0.8"/>
      </g>
     </g>
     <g id="text_17">
      <!-- 0 -->
      <g style="fill: #ff0000" transform="translate(242.185859 100.980768)scale(0.12 -0.12)">
       <use xlink:href="#ArialMT-30"/>
      </g>
     </g>
    </g>
    <g id="ytick_8">
     <g id="line2d_16">
      <g>
       <use xlink:href="#md6ed682d29" x="238.685859" y="56.460447" style="fill: #ff0000; stroke: #ff0000; stroke-width: 0.8"/>
      </g>
     </g>
     <g id="text_18">
      <!-- 1 -->
      <g style="fill: #ff0000" transform="translate(242.185859 60.755135)scale(0.12 -0.12)">
       <use xlink:href="#ArialMT-31"/>
      </g>
     </g>
    </g>
    <g id="text_19">
     <!-- RMDL/R -->
     <g style="fill: #ff0000" transform="translate(261.448359 98.381802)rotate(-90)scale(0.12 -0.12)">
      <use xlink:href="#ArialMT-52"/>
      <use xlink:href="#ArialMT-4d" x="72.216797"/>
      <use xlink:href="#ArialMT-44" x="155.517578"/>
      <use xlink:href="#ArialMT-4c" x="227.734375"/>
      <use xlink:href="#ArialMT-2f" x="283.349609"/>
      <use xlink:href="#ArialMT-52" x="311.132812"/>
     </g>
    </g>
   </g>
   <g id="line2d_17">
    <path d="M 55.350266 111.997163 
L 55.933256 111.248564 
L 56.516245 110.993534 
L 57.390729 110.594093 
L 57.973719 109.808889 
L 59.139697 106.745707 
L 60.014182 104.085184 
L 60.597171 102.670448 
L 61.18016 101.619352 
L 61.76315 100.353854 
L 62.346139 98.794507 
L 62.929129 96.721757 
L 63.512118 95.351072 
L 63.803613 94.897086 
L 64.095107 94.842862 
L 64.969592 95.557631 
L 65.261086 96.070789 
L 65.552581 96.285007 
L 65.844076 96.65747 
L 66.13557 96.781942 
L 67.010054 98.856414 
L 69.925001 107.310877 
L 70.799486 108.912662 
L 71.382475 110.317743 
L 72.256959 112.327416 
L 74.005927 114.715209 
L 75.754895 115.721655 
L 76.337885 115.985535 
L 77.212369 116.594953 
L 77.795358 116.994796 
L 78.086853 117.182247 
L 79.252832 117.028586 
L 79.544327 116.88136 
L 80.127316 117.051112 
L 80.710305 117.06318 
L 81.293295 116.961811 
L 81.876284 116.80292 
L 82.167779 116.700747 
L 82.459274 116.386182 
L 83.042263 115.248601 
L 83.333758 114.479085 
L 83.916747 112.270698 
L 84.499737 108.838647 
L 85.082726 103.727175 
L 86.248705 91.929802 
L 87.706178 80.811437 
L 88.872157 74.941712 
L 89.455147 72.771539 
L 90.621125 68.554686 
L 91.204115 65.679358 
L 92.078599 61.682137 
L 92.661588 59.979788 
L 92.953083 59.353073 
L 94.993546 52.659125 
L 96.159525 50.507054 
L 96.742514 48.548065 
L 97.034009 48.218215 
L 97.616998 46.866634 
L 97.908493 46.359791 
L 99.074472 40.92933 
L 99.365966 38.523837 
L 100.531945 33.580107 
L 101.697924 35.937329 
L 101.989419 36.890677 
L 102.572408 39.34444 
L 102.863903 40.289743 
L 104.029882 47.216597 
L 105.77885 58.655962 
L 106.653334 64.68136 
L 106.944829 65.854742 
L 108.110807 73.62915 
L 108.693797 76.898689 
L 109.568281 80.832354 
L 110.15127 84.246303 
L 110.73426 87.531933 
L 111.608744 91.433015 
L 112.191733 92.834355 
L 112.774723 94.548732 
L 114.232196 99.317682 
L 114.523691 99.90743 
L 115.10668 101.580333 
L 115.398175 102.563448 
L 117.438638 106.490676 
L 118.313122 106.55906 
L 118.604617 106.474586 
L 119.187606 105.909014 
L 119.770596 105.649156 
L 120.353585 104.910211 
L 120.64508 104.743677 
L 121.519564 102.955245 
L 121.811058 102.82773 
L 122.685543 101.720319 
L 122.977037 102.013161 
L 123.560027 101.787093 
L 123.851521 102.110507 
L 124.143016 102.105278 
L 125.0175 100.268897 
L 125.60049 98.776285 
L 125.891984 98.258782 
L 126.474974 96.891288 
L 127.057963 95.527381 
L 127.932447 93.037052 
L 128.806931 91.134139 
L 129.098426 90.668728 
L 129.97291 90.108787 
L 130.5559 90.004603 
L 131.138889 89.657053 
L 132.013373 87.863392 
L 132.887857 85.274068 
L 133.470847 84.892327 
L 133.762341 84.761594 
L 134.345331 84.934162 
L 134.636825 84.319112 
L 135.219815 83.813878 
L 136.094299 82.193187 
L 138.426257 72.979104 
L 138.717751 71.358815 
L 139.009246 70.712791 
L 139.88373 67.976644 
L 140.175225 68.263453 
L 140.466719 67.953313 
L 140.758214 68.088471 
L 141.049709 68.698694 
L 141.632698 71.125909 
L 142.215688 73.164141 
L 143.673161 77.325483 
L 144.547645 80.303387 
L 145.422129 82.225368 
L 145.713624 82.663425 
L 146.588108 85.892739 
L 147.462592 89.517873 
L 148.337076 92.956118 
L 149.503055 97.536812 
L 150.960529 100.857881 
L 151.543518 102.113323 
L 151.835013 102.853877 
L 152.418002 103.854691 
L 153.875476 106.989474 
L 157.081917 112.610202 
L 158.247896 114.14119 
L 159.413875 115.174586 
L 159.70537 115.199928 
L 160.288359 115.565982 
L 161.745833 116.07564 
L 162.037327 116.086099 
L 162.620317 116.325039 
L 163.786296 116.203558 
L 164.952274 114.994778 
L 165.535264 113.450515 
L 166.118253 110.968192 
L 166.992737 106.966546 
L 167.575727 104.950437 
L 169.324695 100.280201 
L 169.61619 100.048943 
L 171.365158 95.197129 
L 172.239642 93.640517 
L 172.531137 93.45194 
L 173.114126 92.579848 
L 173.697115 92.02755 
L 174.280105 92.014275 
L 175.154589 91.611215 
L 175.737578 89.926163 
L 176.029073 89.33726 
L 177.486547 84.625229 
L 178.361031 82.921271 
L 178.652525 82.614349 
L 178.94402 82.599868 
L 179.235515 82.711293 
L 179.818504 82.693594 
L 180.109999 82.723361 
L 180.401494 82.399947 
L 180.692988 82.388684 
L 180.984483 82.669459 
L 181.567472 82.822316 
L 182.733451 82.22577 
L 183.024946 82.455056 
L 183.607935 83.308242 
L 184.482419 85.472381 
L 185.648398 88.761229 
L 186.231388 91.206545 
L 187.397366 94.7392 
L 188.271851 97.854514 
L 188.85484 99.559357 
L 189.729324 101.888059 
L 191.186798 106.948846 
L 191.769787 108.143548 
L 192.352776 109.779524 
L 193.227261 111.368839 
L 193.518755 111.473023 
L 193.81025 111.754603 
L 194.393239 112.743751 
L 195.267723 113.416726 
L 195.850713 113.545046 
L 197.016692 114.195494 
L 197.599681 114.398231 
L 198.474165 114.802499 
L 199.057155 114.614645 
L 199.640144 113.933223 
L 200.223133 113.296451 
L 200.514628 113.051075 
L 201.389112 112.93965 
L 201.680607 112.983094 
L 202.263596 112.767886 
L 202.846586 112.20151 
L 203.72107 110.888545 
L 204.595554 110.569556 
L 205.178543 110.791601 
L 205.470038 110.88412 
L 207.510501 112.656059 
L 207.801996 113.01809 
L 208.384985 113.954543 
L 209.259469 114.521322 
L 209.842459 114.655273 
L 210.716943 115.422778 
L 211.008437 115.593737 
L 211.591427 115.536215 
L 212.174416 115.391 
L 212.465911 115.371289 
L 213.63189 115.906693 
L 214.506374 115.945309 
L 215.380858 115.817392 
L 215.963847 116.050298 
L 216.546837 116.126727 
L 216.838331 116.300502 
L 217.129826 116.289238 
L 217.421321 116.407502 
L 217.712816 116.671382 
L 218.00431 116.764705 
L 219.461784 116.4606 
L 220.044773 116.777175 
L 221.210752 116.672186 
L 221.793741 116.487953 
L 222.085236 116.520134 
L 225.000183 115.241763 
L 227.040646 114.851977 
L 227.91513 114.783191 
L 229.372604 114.058325 
L 229.955593 113.949313 
L 229.955593 113.949313 
" clip-path="url(#p43f2b51cae)" style="fill: none; stroke: #ff0000; stroke-width: 1.5; stroke-linecap: square"/>
   </g>
   <g id="patch_8">
    <path d="M 46.62 121.362354 
L 46.62 29.4 
" style="fill: none; stroke: #000000; stroke-width: 0.8; stroke-linejoin: miter; stroke-linecap: square"/>
   </g>
   <g id="patch_9">
    <path d="M 238.685859 121.362354 
L 238.685859 29.4 
" style="fill: none; stroke: #ff0000; stroke-width: 0.8; stroke-linejoin: miter; stroke-linecap: square"/>
   </g>
   <g id="patch_10">
    <path d="M 46.62 121.362354 
L 238.685859 121.362354 
" style="fill: none; stroke: #000000; stroke-width: 0.8; stroke-linejoin: miter; stroke-linecap: square"/>
   </g>
  </g>
  <g id="axes_4">
   <g id="matplotlib.axis_6">
    <g id="ytick_9">
     <g id="line2d_18">
      <defs>
       <path id="m2c41ed51a2" d="M 0 0 
L -3.5 0 
" style="stroke: #bf00bf; stroke-width: 0.8"/>
      </defs>
      <g>
       <use xlink:href="#m2c41ed51a2" x="238.685859" y="244.829732" style="fill: #bf00bf; stroke: #bf00bf; stroke-width: 0.8"/>
      </g>
     </g>
     <g id="text_20">
      <!-- −0.2 -->
      <g style="fill: #bf00bf" transform="translate(242.185859 249.124419)scale(0.12 -0.12)">
       <defs>
        <path id="ArialMT-2e" d="M 581 0 
L 581 641 
L 1222 641 
L 1222 0 
L 581 0 
z
" transform="scale(0.015625)"/>
       </defs>
       <use xlink:href="#ArialMT-2212"/>
       <use xlink:href="#ArialMT-30" x="58.398438"/>
       <use xlink:href="#ArialMT-2e" x="114.013672"/>
       <use xlink:href="#ArialMT-32" x="141.796875"/>
      </g>
     </g>
    </g>
    <g id="ytick_10">
     <g id="line2d_19">
      <g>
       <use xlink:href="#m2c41ed51a2" x="238.685859" y="198.998823" style="fill: #bf00bf; stroke: #bf00bf; stroke-width: 0.8"/>
      </g>
     </g>
     <g id="text_21">
      <!-- 0.0 -->
      <g style="fill: #bf00bf" transform="translate(242.185859 203.29351)scale(0.12 -0.12)">
       <use xlink:href="#ArialMT-30"/>
       <use xlink:href="#ArialMT-2e" x="55.615234"/>
       <use xlink:href="#ArialMT-30" x="83.398438"/>
      </g>
     </g>
    </g>
    <g id="ytick_11">
     <g id="line2d_20">
      <g>
       <use xlink:href="#m2c41ed51a2" x="238.685859" y="153.167914" style="fill: #bf00bf; stroke: #bf00bf; stroke-width: 0.8"/>
      </g>
     </g>
     <g id="text_22">
      <!-- 0.2 -->
      <g style="fill: #bf00bf" transform="translate(242.185859 157.462601)scale(0.12 -0.12)">
       <use xlink:href="#ArialMT-30"/>
       <use xlink:href="#ArialMT-2e" x="55.615234"/>
       <use xlink:href="#ArialMT-32" x="83.398438"/>
      </g>
     </g>
    </g>
    <g id="text_23">
     <!-- $\frac{dz}{dt}$ -->
     <g style="fill: #bf00bf" transform="translate(264.234609 210.758823)scale(0.12 -0.12)">
      <defs>
       <path id="DejaVuSans-Oblique-7a" d="M 744 3500 
L 3475 3500 
L 3372 2975 
L 738 459 
L 2913 459 
L 2822 0 
L -19 0 
L 84 525 
L 2719 3041 
L 653 3041 
L 744 3500 
z
" transform="scale(0.015625)"/>
      </defs>
      <use xlink:href="#DejaVuSans-Oblique-64" transform="translate(0 44.810938)scale(0.7)"/>
      <use xlink:href="#DejaVuSans-Oblique-7a" transform="translate(44.433594 44.810938)scale(0.7)"/>
      <use xlink:href="#DejaVuSans-Oblique-64" transform="translate(5 -40.623437)scale(0.7)"/>
      <use xlink:href="#DejaVuSans-Oblique-74" transform="translate(49.433594 -40.623437)scale(0.7)"/>
      <path d="M 0 18.815625 
L 0 25.065625 
L 81.176758 25.065625 
L 81.176758 18.815625 
L 0 18.815625 
z
"/>
     </g>
    </g>
   </g>
   <g id="line2d_21">
    <path d="M 55.350266 196.996012 
L 55.641761 196.387798 
L 55.933256 196.108993 
L 56.516245 195.852149 
L 56.80774 195.433369 
L 57.390729 193.918848 
L 57.973719 190.896491 
L 58.556708 187.656437 
L 59.139697 185.525108 
L 59.431192 185.114349 
L 59.722687 185.274375 
L 60.305676 186.406017 
L 60.888666 187.61242 
L 61.18016 187.77913 
L 61.471655 187.427128 
L 62.346139 185.751702 
L 62.637634 185.715763 
L 62.929129 186.54979 
L 63.512118 190.472652 
L 64.678097 200.865159 
L 65.261086 203.73696 
L 66.13557 206.864953 
L 67.301549 212.608574 
L 67.593044 213.435199 
L 67.884539 213.703477 
L 68.467528 213.400269 
L 69.050517 212.310678 
L 69.633507 211.318935 
L 70.507991 210.130005 
L 71.09098 210.008171 
L 71.965464 209.28557 
L 72.548454 207.97958 
L 74.297422 203.284586 
L 74.880411 202.276688 
L 75.463401 201.798136 
L 75.754895 201.736456 
L 76.337885 201.936584 
L 76.920874 202.108641 
L 77.212369 201.98929 
L 77.503864 201.74123 
L 78.086853 200.657329 
L 78.669843 199.455413 
L 79.252832 198.796403 
L 79.544327 198.729566 
L 80.127316 198.900668 
L 80.710305 198.737205 
L 81.0018 198.44255 
L 81.293295 197.878066 
L 81.876284 195.889959 
L 82.459274 192.425525 
L 83.042263 187.238802 
L 83.625252 180.004584 
L 85.374221 154.742759 
L 85.665715 153.396132 
L 85.95721 153.017646 
L 86.248705 153.812239 
L 86.831694 158.177824 
L 89.163652 177.755242 
L 89.455147 178.519281 
L 89.746641 178.969188 
L 90.038136 179.034497 
L 90.329631 178.805151 
L 90.621125 178.353335 
L 90.91262 177.640473 
L 91.204115 177.78675 
L 91.495609 178.150342 
L 91.787104 178.876953 
L 92.370094 181.309429 
L 92.661588 182.6454 
L 92.953083 183.334964 
L 93.244578 183.570993 
L 93.827567 183.620643 
L 94.119062 183.416887 
L 94.410556 183.555334 
L 95.285041 185.720463 
L 95.86803 187.119069 
L 96.159525 187.51818 
L 96.742514 187.451343 
L 97.034009 187.080877 
L 97.616998 184.888632 
L 99.074472 174.782916 
L 99.365966 174.632056 
L 99.657461 176.67917 
L 100.24045 184.508617 
L 101.697924 210.846113 
L 102.280913 217.021828 
L 104.029882 228.771154 
L 104.612871 231.007321 
L 104.904366 231.874671 
L 105.19586 232.208281 
L 105.77885 232.245137 
L 106.070345 232.181165 
L 107.527818 229.812471 
L 108.985292 225.524416 
L 109.276786 225.169991 
L 109.859776 225.371456 
L 110.442765 224.634915 
L 111.025754 221.989115 
L 111.900239 216.504595 
L 112.191733 215.428963 
L 112.774723 214.438042 
L 113.357712 214.374833 
L 113.649207 214.444748 
L 114.815186 212.931774 
L 116.272659 209.494063 
L 117.147143 205.716297 
L 118.896111 196.607786 
L 120.06209 193.738389 
L 120.936574 192.164861 
L 121.228069 191.879373 
L 121.519564 192.209355 
L 122.394048 194.637057 
L 122.977037 197.056165 
L 123.268532 197.267751 
L 123.560027 197.025191 
L 123.851521 196.423603 
L 124.434511 193.111728 
L 125.0175 189.923718 
L 125.60049 188.022438 
L 125.891984 187.625027 
L 126.766468 186.961629 
L 127.349458 186.433263 
L 127.640953 186.5449 
L 127.932447 186.877346 
L 128.515437 188.817586 
L 129.681415 194.575834 
L 129.97291 195.309244 
L 130.264405 195.636171 
L 130.5559 195.354884 
L 130.847394 194.48677 
L 132.013373 188.941803 
L 132.304868 188.515384 
L 132.596362 188.876876 
L 134.053836 195.262267 
L 134.345331 195.255774 
L 134.92832 193.364867 
L 135.802804 188.1791 
L 136.677288 182.831779 
L 137.551772 179.598599 
L 137.843267 179.311583 
L 138.426257 179.507128 
L 138.717751 180.477598 
L 139.300741 184.562086 
L 139.88373 190.893245 
L 141.049709 207.699439 
L 141.341204 211.064001 
L 141.632698 213.06051 
L 141.924193 214.047784 
L 142.215688 214.563 
L 142.507182 214.59088 
L 142.798677 214.486233 
L 143.090172 214.235118 
L 143.673161 214.441166 
L 143.964656 214.35867 
L 144.256151 213.865033 
L 144.83914 212.560571 
L 145.130635 212.241282 
L 145.422129 212.234789 
L 145.713624 212.897046 
L 146.879603 217.694664 
L 147.171098 218.38694 
L 147.462592 218.637024 
L 148.045582 218.793252 
L 148.337076 218.671972 
L 148.920066 217.441851 
L 149.21156 216.531 
L 150.377539 211.460455 
L 150.960529 210.084382 
L 151.252023 209.767616 
L 152.418002 209.366844 
L 153.292486 209.334648 
L 155.041455 208.164623 
L 155.624444 208.104661 
L 156.790423 206.861115 
L 157.373412 205.912224 
L 157.956402 205.140165 
L 159.70537 202.004567 
L 160.579854 201.051475 
L 161.162843 200.757775 
L 162.037327 200.269103 
L 162.328822 200.07795 
L 162.911812 199.171071 
L 163.494801 197.770172 
L 164.07779 195.3165 
L 164.66078 191.712472 
L 166.118253 180.057099 
L 166.409748 179.111073 
L 166.701243 178.901969 
L 166.992737 179.366007 
L 167.575727 181.631773 
L 168.450211 185.434 
L 169.0332 186.775185 
L 169.324695 187.070234 
L 169.61619 187.151947 
L 170.199179 186.468761 
L 170.490674 186.388843 
L 170.782168 186.515108 
L 171.073663 186.930805 
L 171.656653 188.796601 
L 173.114126 193.68746 
L 173.697115 195.294291 
L 173.98861 195.635636 
L 174.280105 195.424012 
L 174.5716 194.835658 
L 174.863094 193.725977 
L 175.446084 189.880763 
L 176.029073 186.439817 
L 176.320568 185.167627 
L 176.612063 184.420011 
L 176.903557 184.4794 
L 177.195052 185.175648 
L 177.778041 187.979926 
L 179.235515 196.865394 
L 179.818504 198.425554 
L 180.109999 198.782654 
L 180.984483 199.100033 
L 181.567472 198.740833 
L 181.858967 198.701113 
L 182.150462 199.004743 
L 182.441957 199.72276 
L 183.024946 202.752183 
L 184.190925 209.933123 
L 185.065409 213.325183 
L 185.939893 215.720039 
L 186.231388 215.92074 
L 186.814377 215.916699 
L 187.105872 215.663541 
L 187.397366 215.26254 
L 187.980356 214.778546 
L 188.563345 214.043976 
L 189.146335 213.935796 
L 189.437829 214.06502 
L 190.020819 214.832905 
L 190.312314 214.857291 
L 190.603808 214.671924 
L 190.895303 214.323399 
L 191.769787 211.701814 
L 192.352776 209.74006 
L 192.935766 207.882572 
L 193.81025 205.501274 
L 194.393239 204.429404 
L 195.267723 202.52723 
L 195.850713 201.52888 
L 196.433702 201.294951 
L 197.016692 201.293424 
L 197.599681 200.984065 
L 197.891176 200.549244 
L 198.474165 198.904487 
L 199.348649 195.844129 
L 199.640144 195.208798 
L 199.931639 195.037505 
L 200.223133 195.306761 
L 201.389112 197.359222 
L 201.680607 197.242735 
L 202.263596 195.93178 
L 202.846586 194.46901 
L 203.13808 194.04221 
L 203.429575 194.11955 
L 203.72107 194.685943 
L 204.304059 196.758264 
L 205.470038 201.115447 
L 206.344522 202.815583 
L 207.510501 204.571479 
L 207.801996 204.731124 
L 208.09349 204.642517 
L 208.67648 203.652188 
L 209.550964 202.185599 
L 209.842459 201.938303 
L 210.133953 201.843204 
L 210.716943 201.196224 
L 211.882921 199.402899 
L 212.174416 199.422568 
L 212.757406 199.871902 
L 213.340395 200.22098 
L 213.63189 200.118625 
L 214.506374 199.403471 
L 215.089363 199.22454 
L 215.963847 199.839629 
L 216.838331 200.535686 
L 217.421321 200.468085 
L 217.712816 200.296601 
L 218.5873 199.272853 
L 219.170289 199.03797 
L 220.044773 199.374063 
L 220.919257 198.752864 
L 221.502247 197.946049 
L 222.95972 196.919818 
L 223.54271 196.753108 
L 224.125699 196.987992 
L 225.291678 197.772082 
L 226.457657 198.144076 
L 227.332141 197.974502 
L 227.91513 197.505117 
L 228.49812 197.106579 
L 229.081109 197.100277 
L 229.664098 197.702954 
L 229.955593 198.091562 
L 229.955593 198.091562 
" clip-path="url(#pa4a81d33f9)" style="fill: none; stroke: #bf00bf; stroke-width: 1.5; stroke-linecap: square"/>
   </g>
   <g id="patch_11">
    <path d="M 46.62 244.98 
L 46.62 153.017646 
" style="fill: none; stroke: #000000; stroke-width: 0.8; stroke-linejoin: miter; stroke-linecap: square"/>
   </g>
   <g id="patch_12">
    <path d="M 238.685859 244.98 
L 238.685859 153.017646 
" style="fill: none; stroke: #bf00bf; stroke-width: 0.8; stroke-linejoin: miter; stroke-linecap: square"/>
   </g>
   <g id="patch_13">
    <path d="M 46.62 244.98 
L 238.685859 244.98 
" style="fill: none; stroke: #000000; stroke-width: 0.8; stroke-linejoin: miter; stroke-linecap: square"/>
   </g>
  </g>
 </g>
 <defs>
  <clipPath id="p43f2b51cae">
   <rect x="46.62" y="29.4" width="192.065859" height="91.962354"/>
  </clipPath>
  <clipPath id="pa4a81d33f9">
   <rect x="46.62" y="153.017646" width="192.065859" height="91.962354"/>
  </clipPath>
 </defs>
</svg>
